v 0.0000 0.0000 0.0000
v 0.0000 6.0000 0.0000
v 1.0000 0.0000 0.0000
v 0.8000 6.0000 0.0000
v 0.7071 0.0000 0.7071
v 0.5657 6.0000 0.5657
v 0.0000 0.0000 1.0000
v 0.0000 6.0000 0.8000
v -0.7071 0.0000 0.7071
v -0.5657 6.0000 0.5657
v -1.0000 0.0000 0.0000
v -0.8000 6.0000 0.0000
v -0.7071 0.0000 -0.7071
v -0.5657 6.0000 -0.5657
v -0.0000 0.0000 -1.0000
v -0.0000 6.0000 -0.8000
v 0.7071 0.0000 -0.7071
v 0.5657 6.0000 -0.5657

vn 0.0000 -1.0000 0.0000
vn 0.0000 1.0000 0.0000
vn 0.9239 0.0000 0.3827
vn 0.9239 0.0000 0.3827
vn -0.9234 -0.0308 -0.3825
vn -0.9235 -0.0308 -0.3825
vn 0.0000 -1.0000 0.0000
vn 0.0000 1.0000 0.0000
vn 0.3827 0.0000 0.9239
vn 0.3827 0.0000 0.9239
vn -0.3825 -0.0308 -0.9234
vn -0.3825 -0.0308 -0.9235
vn 0.0000 -1.0000 0.0000
vn 0.0000 1.0000 0.0000
vn -0.3827 0.0000 0.9239
vn -0.3827 0.0000 0.9239
vn 0.3825 -0.0308 -0.9234
vn 0.3825 -0.0308 -0.9235
vn 0.0000 -1.0000 0.0000
vn 0.0000 1.0000 0.0000
vn -0.9239 0.0000 0.3827
vn -0.9239 0.0000 0.3827
vn 0.9234 -0.0308 -0.3825
vn 0.9235 -0.0308 -0.3825
vn 0.0000 -1.0000 0.0000
vn 0.0000 1.0000 0.0000
vn -0.9239 0.0000 -0.3827
vn -0.9239 0.0000 -0.3827
vn 0.9234 -0.0308 0.3825
vn 0.9235 -0.0308 0.3825
vn 0.0000 -1.0000 0.0000
vn 0.0000 1.0000 0.0000
vn -0.3827 0.0000 -0.9239
vn -0.3827 0.0000 -0.9239
vn 0.3825 -0.0308 0.9234
vn 0.3825 -0.0308 0.9235
vn 0.0000 -1.0000 0.0000
vn 0.0000 1.0000 0.0000
vn 0.3827 0.0000 -0.9239
vn 0.3827 0.0000 -0.9239
vn -0.3825 -0.0308 0.9234
vn -0.3825 -0.0308 0.9235
vn 0.0000 -1.0000 0.0000
vn 0.0000 1.0000 0.0000
vn 0.9239 0.0000 -0.3827
vn 0.9239 0.0000 -0.3827
vn -0.9234 -0.0308 0.3825
vn -0.9235 -0.0308 0.3825

f 5//1 1//1 3//1
f 4//2 2//2 6//2
f 3//5 5//5 6//5
f 3//6 6//6 4//6
f 7//7 1//7 5//7
f 6//8 2//8 8//8
f 5//11 7//11 8//11
f 5//12 8//12 6//12
f 9//13 1//13 7//13
f 8//14 2//14 10//14
f 7//17 9//17 10//17
f 7//18 10//18 8//18
f 11//19 1//19 9//19
f 10//20 2//20 12//20
f 9//23 11//23 12//23
f 9//24 12//24 10//24
f 13//25 1//25 11//25
f 12//26 2//26 14//26
f 11//29 13//29 14//29
f 11//30 14//30 12//30
f 15//31 1//31 13//31
f 14//32 2//32 16//32
f 13//35 15//35 16//35
f 13//36 16//36 14//36
f 17//37 1//37 15//37
f 16//38 2//38 18//38
f 15//41 17//41 18//41
f 15//42 18//42 16//42
f 3//43 1//43 17//43
f 18//44 2//44 4//44
f 17//47 3//47 4//47
f 17//48 4//48 18//48